HIERARCHY
ROOT Hips
{
	OFFSET 0.000000 0.000000 0.000000
	CHANNELS 6 Xposition Yposition Zposition Zrotation Yrotation Xrotation 
	JOINT LHipJoint
	{
		OFFSET 0.000000 0.000000 0.000000
		CHANNELS 3 Zrotation Yrotation Xrotation
		JOINT LeftUpLeg
		{
			OFFSET 1.363060 -1.794630 0.839290
			CHANNELS 3 Zrotation Yrotation Xrotation
			JOINT LeftLeg
			{
				OFFSET 2.448110 -6.726130 0.000000
				CHANNELS 3 Zrotation Yrotation Xrotation
				JOINT LeftFoot
				{
					OFFSET 2.562200 -7.039590 0.000000
					CHANNELS 3 Zrotation Yrotation Xrotation
					JOINT LeftToeBase
					{
						OFFSET 0.157640 -0.433110 2.322550
						CHANNELS 3 Zrotation Yrotation Xrotation
						End Site
						{
							OFFSET 0.000000 0.000000 0.000000
						}
					}
				}
			}
		}
	}
	JOINT RHipJoint
	{
		OFFSET 0.000000 0.000000 0.000000
		CHANNELS 3 Zrotation Yrotation Xrotation
		JOINT RightUpLeg
		{
			OFFSET -1.305520 -1.794630 0.839290
			CHANNELS 3 Zrotation Yrotation Xrotation
			JOINT RightLeg
			{
				OFFSET -2.542530 -6.985550 0.000000
				CHANNELS 3 Zrotation Yrotation Xrotation
				JOINT RightFoot
				{
					OFFSET -2.568260 -7.056230 0.000000
					CHANNELS 3 Zrotation Yrotation Xrotation
					JOINT RightToeBase
					{
						OFFSET -0.164730 -0.452590 2.363150
						CHANNELS 3 Zrotation Yrotation Xrotation
						End Site
						{
							OFFSET 0.000000 0.000000 0.000000
						}
					}
				}
			}
		}
	}
	JOINT LowerBack
	{
		OFFSET 0.000000 0.000000 0.000000
		CHANNELS 3 Zrotation Yrotation Xrotation
		JOINT Spine
		{
			OFFSET 0.028270 2.035590 -0.193380
			CHANNELS 3 Zrotation Yrotation Xrotation
			JOINT Spine1
			{
				OFFSET 0.056720 2.048850 -0.042750
				CHANNELS 3 Zrotation Yrotation Xrotation
				JOINT Neck
				{
					OFFSET 0.000000 0.000000 0.000000
					CHANNELS 3 Zrotation Yrotation Xrotation
					JOINT Neck1
					{
						OFFSET -0.054170 1.746240 0.172020
						CHANNELS 3 Zrotation Yrotation Xrotation
						JOINT Head
						{
							OFFSET 0.104070 1.761360 -0.123970
							CHANNELS 3 Zrotation Yrotation Xrotation
							End Site
							{
								OFFSET 0.000000 0.000000 0.000000
							}
						}
					}
				}
				JOINT LeftShoulder
				{
					OFFSET 0.000000 0.000000 0.000000
					CHANNELS 3 Zrotation Yrotation Xrotation
					JOINT LeftArm
					{
						OFFSET 3.362410 1.200890 -0.311210
						CHANNELS 3 Zrotation Yrotation Xrotation
						JOINT LeftForeArm
						{
							OFFSET 4.983000 -0.000000 -0.000000
							CHANNELS 3 Zrotation Yrotation Xrotation
							JOINT LeftHand
							{
								OFFSET 3.483560 -0.000000 -0.000000
								CHANNELS 3 Zrotation Yrotation Xrotation
								JOINT LeftFingerBase
								{
									OFFSET 0.000000 0.000000 0.000000
									CHANNELS 3 Zrotation Yrotation Xrotation
									JOINT LeftHandIndex1
									{
										OFFSET 0.715260 -0.000000 -0.000000
										CHANNELS 3 Zrotation Yrotation Xrotation
										End Site
										{
											OFFSET 0.000000 0.000000 0.000000
										}
									}
								}
								JOINT LThumb
								{
									OFFSET 0.000000 0.000000 0.000000
									CHANNELS 3 Zrotation Yrotation Xrotation
									End Site
									{
										OFFSET 0.000000 0.000000 0.000000
									}
								}
							}
						}
					}
				}
				JOINT RightShoulder
				{
					OFFSET 0.000000 0.000000 0.000000
					CHANNELS 3 Zrotation Yrotation Xrotation
					JOINT RightArm
					{
						OFFSET -3.136600 1.374050 -0.404650
						CHANNELS 3 Zrotation Yrotation Xrotation
						JOINT RightForeArm
						{
							OFFSET -5.241900 -0.000000 -0.000000
							CHANNELS 3 Zrotation Yrotation Xrotation
							JOINT RightHand
							{
								OFFSET -3.444170 -0.000000 -0.000000
								CHANNELS 3 Zrotation Yrotation Xrotation
								JOINT RightFingerBase
								{
									OFFSET 0.000000 0.000000 0.000000
									CHANNELS 3 Zrotation Yrotation Xrotation
									JOINT RightHandIndex1
									{
										OFFSET -0.622530 -0.000000 -0.000000
										CHANNELS 3 Zrotation Yrotation Xrotation
										End Site
										{
											OFFSET 0.000000 0.000000 0.000000
										}
									}
								}
								JOINT RThumb
								{
									OFFSET 0.000000 0.000000 0.000000
									CHANNELS 3 Zrotation Yrotation Xrotation
									End Site
									{
										OFFSET 0.000000 0.000000 0.000000
									}
								}
							}
						}
					}
				}
			}
		}
	}
}
MOTION
Frames: 9
Frame Time: 0.008333
-3.883858 17.535360 -6.705696 -2.863424 6.985009 15.023067 1.810130 3.503714 0.616123 -19.462727 -1.564424 -35.907960 3.386975 11.866431 35.924508 -2.161161 14.026413 -12.610029 0.384400 3.981600 11.025000 -5.344312 -4.437993 -0.167792 27.467921 10.302251 -5.578507 -4.155540 -9.396688 34.369995 0.096093 -4.185144 -10.784902 -0.023700 -0.994300 2.733200 4.396340 -1.524542 -2.663163 1.638094 -2.306586 -4.946961 2.397603 -1.567687 -0.065428 6.533030 9.691989 -12.902394 -3.250927 13.628435 11.388067 -2.268700 6.770100 5.219000 -3.603401 -15.518401 5.738058 36.817766 -25.818774 -117.528105 -2.586840 -7.197527 1.112534 -2.783698 -6.047254 26.696946 13.029325 44.181449 10.167300 -7.125000 0.000000 0.000000 -59.089900 75.412900 -45.470200 3.614355 15.824683 1.983522 71.396058 -10.950428 36.284403 -96.377419 54.281055 -61.024794 1.779652 -3.010594 -3.144179 -34.848750 -5.636262 1.303500 7.125000 0.000000 0.000000 -8.050800 -32.098700 -2.564100 
-3.956317 17.530387 -6.753292 -3.282437 6.665888 15.169328 1.856933 3.486844 0.621831 -18.644891 -2.178758 -37.290435 3.759467 12.442792 37.729537 -2.317039 14.846059 -12.834249 0.566200 4.819200 13.393700 -5.390984 -4.504825 -0.251181 27.953366 8.902684 -4.808886 -3.658473 -8.560885 31.648061 0.057503 -3.795197 -10.718241 -0.012000 -0.706700 1.942200 4.490080 -1.673477 -2.919430 1.789263 -2.541476 -4.995528 2.373708 -1.679258 0.157049 6.608792 9.996520 -12.920453 -3.348966 14.070583 11.488517 -2.318100 6.988200 5.334600 -3.552670 -15.365969 5.974869 38.003481 -26.531044 -118.278270 -2.991457 -6.658033 1.334627 -2.601446 -5.999881 26.809059 13.121647 44.661963 10.182900 -7.125000 0.000000 0.000000 -60.544200 75.554200 -46.891800 3.627841 15.746565 1.937151 70.926964 -9.968924 37.858906 -97.396577 54.007976 -61.900816 1.802817 -2.964139 -3.551456 -35.329936 -5.717992 1.399400 7.125000 0.000000 0.000000 -8.448900 -32.225100 -2.667300 
-4.022687 17.520239 -6.800887 -3.799419 6.606744 15.353520 1.913639 3.455091 0.610120 -17.794412 -2.735848 -38.860248 4.187832 13.059554 39.710666 -2.459087 15.619035 -13.113002 0.576200 4.861100 13.512900 -5.445442 -4.546026 -0.279918 28.824147 8.286692 -4.162007 -3.280194 -7.925350 29.626104 0.059330 -3.983832 -11.098002 -0.007700 -0.568400 1.561800 4.738011 -1.810136 -3.211560 1.959334 -2.769071 -5.093844 2.248770 -1.788721 0.301873 6.676138 10.296865 -12.998231 -3.287982 14.507157 11.859880 -2.296100 7.214100 5.539200 -3.548952 -15.207529 6.256160 39.121000 -27.534239 -118.870025 -3.279399 -6.333002 1.502242 -2.361832 -5.914464 26.898659 12.860007 44.935987 9.850500 -7.125000 0.000000 0.000000 -61.245000 75.433500 -47.383900 3.650360 15.677628 1.871510 70.571128 -9.100631 39.294911 -98.368917 53.737049 -62.742735 1.823232 -2.919149 -3.996521 -35.695649 -5.731367 1.442700 7.125000 0.000000 0.000000 -8.744600 -32.270900 -2.752800 
-4.076372 17.502378 -6.836711 -4.207308 6.516037 15.388171 1.947569 3.425950 0.608460 -17.208101 -2.941724 -40.094199 4.556916 13.554147 41.356217 -2.516953 16.013176 -13.519622 0.432500 4.220400 11.697500 -5.483430 -4.575705 -0.298166 29.498107 7.830527 -3.423479 -2.976060 -7.382419 27.947308 0.024531 -3.991938 -11.635549 -0.011200 -0.681900 1.874100 4.889403 -1.884122 -3.394617 2.136000 -2.901017 -5.208019 2.141934 -1.846580 0.362192 6.730313 10.416245 -12.596146 -3.269420 14.677022 11.826789 -2.362800 7.317400 5.502400 -3.590318 -15.056665 6.617886 40.075535 -28.860330 -119.287658 -3.431944 -6.273969 1.602425 -2.133263 -5.801411 26.580777 12.914079 45.175968 9.812100 -7.125000 0.000000 0.000000 -61.517600 75.436000 -47.627500 3.671554 15.598396 1.778827 70.646373 -8.225789 40.093113 -98.822636 53.591893 -63.058361 1.816922 -2.923848 -3.950190 -35.664341 -5.475411 1.247900 7.125000 0.000000 0.000000 -8.690200 -31.956100 -2.801900 
-4.126098 17.480052 -6.873955 -4.424047 6.401013 15.229136 1.960418 3.396740 0.610226 -17.032209 -2.680016 -41.048452 4.880157 13.947283 42.726197 -2.425055 15.696641 -13.780307 0.205100 2.916300 8.045800 -5.498279 -4.574792 -0.284914 29.982885 7.872321 -2.732714 -2.801246 -7.080879 27.041274 -0.071444 -3.939577 -12.766430 -0.031100 -1.137900 3.128400 4.819085 -2.047666 -3.248374 2.329419 -3.110042 -5.308459 2.243856 -1.940672 0.298455 6.571345 10.630442 -12.242414 -3.201901 14.979854 11.726356 -2.368700 7.476800 5.438100 -3.637069 -14.925332 6.990343 40.911345 -30.129625 -119.648785 -3.570310 -6.197761 1.686520 -1.957084 -5.689655 26.339351 13.118440 45.368623 9.918000 -7.125000 0.000000 0.000000 -61.597100 75.500200 -47.765400 3.719607 15.504145 1.702641 70.412395 -7.374457 41.276334 -99.350508 53.419787 -63.434383 1.809659 -2.914033 -3.907200 -35.655943 -5.298660 1.126300 7.125000 0.000000 0.000000 -8.663000 -31.758900 -2.834500 
-4.164459 17.448896 -6.897398 -4.564795 6.169657 15.079106 1.961987 3.362213 0.613434 -17.186087 -2.017908 -41.790181 5.137395 14.233412 43.773642 -2.116982 14.391169 -14.087412 0.085500 1.885800 5.190200 -5.504445 -4.578367 -0.275325 30.319767 7.806130 -2.357525 -2.715746 -6.948065 26.650315 -0.141247 -3.996460 -13.663518 -0.012100 -0.711000 1.954100 4.769395 -2.155937 -3.288237 2.472662 -3.263606 -5.355372 2.207158 -2.010002 0.482910 6.312265 10.807194 -11.991643 -3.102163 15.221351 11.518418 -2.354800 7.600600 5.328700 -3.704340 -14.754770 7.419607 42.031426 -31.447034 -120.357787 -3.724575 -6.089816 1.802164 -1.758405 -5.569167 26.434774 13.143698 45.559148 9.839000 -7.125000 0.000000 0.000000 -61.739300 75.469400 -47.859000 3.771695 15.360163 1.627240 69.910233 -6.477910 42.902461 -99.991254 53.209060 -63.942729 1.817467 -2.876712 -4.228990 -36.309099 -5.228532 1.099800 7.125000 0.000000 0.000000 -9.172100 -31.680400 -3.022300 
-4.192062 17.411956 -6.908561 -4.607878 5.880636 15.001319 1.962370 3.337122 0.628973 -17.643934 -1.189396 -42.467216 5.393831 14.492709 44.785007 -1.695831 12.601520 -14.609741 0.033200 1.176400 3.234300 -5.506842 -4.606769 -0.287177 30.391238 7.194973 -2.393841 -2.672057 -6.885677 26.463199 -0.116835 -4.267806 -13.817605 -0.005100 0.460000 -1.264000 4.627931 -2.131357 -3.452150 2.542342 -3.241737 -5.423399 2.008179 -1.993089 0.735465 6.138752 10.878394 -11.877636 -2.838750 15.284830 11.349415 -2.309500 7.646300 5.231700 -3.831370 -14.538632 7.950717 43.130686 -33.129711 -120.899738 -3.647928 -6.528704 1.819772 -1.542995 -5.409892 26.384041 13.028293 45.526098 9.620800 -7.125000 0.000000 0.000000 -60.961600 75.283000 -46.975800 3.811582 15.195043 1.512306 69.546584 -5.568039 44.392050 -100.438604 53.043817 -64.254490 1.825313 -2.848783 -4.659044 -37.003928 -5.078620 0.995700 7.125000 0.000000 0.000000 -9.697400 -31.479300 -3.247300 
-4.209416 17.376742 -6.910794 -4.672000 5.748749 14.834617 1.961186 3.339663 0.659630 -18.283723 -0.311211 -43.109423 5.691497 14.783382 45.939250 -1.479682 11.692748 -14.853446 0.001300 -0.228600 -0.628000 -5.504094 -4.635991 -0.275432 30.489644 6.611723 -2.511368 -2.686660 -6.926058 26.609943 -0.104196 -4.482902 -14.018051 -0.037100 1.243500 -3.419200 4.517225 -2.179009 -3.247861 2.651023 -3.274848 -5.645949 1.929554 -2.005359 0.454126 6.256864 10.996137 -11.869223 -2.795554 15.477435 11.777097 -2.313300 7.758200 5.425100 -4.003712 -14.350030 8.436206 43.337393 -35.107602 -120.132140 -3.248008 -7.589621 1.613034 -1.458840 -5.192112 25.966381 13.208351 45.089325 9.707700 -7.125000 0.000000 0.000000 -58.428000 75.087600 -44.559400 3.895215 15.122799 1.396574 69.092918 -5.149491 46.000593 -100.913328 52.883062 -64.507099 1.822900 -2.828910 -4.602052 -36.491261 -5.177881 1.095400 7.125000 0.000000 0.000000 -9.305600 -31.664200 -3.071000 
-4.214896 17.343455 -6.902675 -4.794709 5.871155 14.611357 1.946166 3.339120 0.674732 -18.942757 0.332245 -43.576499 6.007726 15.075682 47.155706 -1.394098 11.405549 -15.157371 0.046700 -1.394900 -3.836000 -5.501829 -4.647865 -0.231323 30.822234 6.526944 -2.659371 -2.790666 -7.155900 27.350537 -0.119203 -4.798109 -14.683467 -0.052900 1.483900 -4.081300 4.702318 -2.500390 -3.066091 2.841136 -3.689583 -5.859549 1.919425 -2.206410 0.062422 5.606221 11.383327 -11.790481 -2.355399 16.039180 12.263519 -2.026700 8.041100 5.527300 -4.209834 -14.317773 8.575453 42.465610 -36.909685 -110.637298 -2.520148 -9.679142 1.247223 -1.119851 -5.170153 18.616147 14.916766 45.487741 11.386000 -7.125000 0.000000 0.000000 -58.179500 76.011600 -45.286900 4.019675 15.070451 1.374555 68.529575 -4.635819 47.993522 -101.202461 52.774523 -64.462696 1.816480 -2.824829 -4.267963 -35.696368 -5.431585 1.297100 7.125000 0.000000 0.000000 -8.708900 -32.035400 -2.791200 
